<?xml version="1.0" encoding="UTF-8"?>
<svg width="1020" height="776" data-name="Layer 1" version="1.1" viewBox="0 0 1020 776" xmlns="http://www.w3.org/2000/svg" xmlns:cc="http://creativecommons.org/ns#" xmlns:dc="http://purl.org/dc/elements/1.1/" xmlns:rdf="http://www.w3.org/1999/02/22-rdf-syntax-ns#">
 <metadata>
  <rdf:RDF>
   <cc:Work rdf:about="">
    <dc:format>image/svg+xml</dc:format>
    <dc:type rdf:resource="http://purl.org/dc/dcmitype/StillImage"/>
    <dc:title>reading</dc:title>
   </cc:Work>
  </rdf:RDF>
 </metadata>
 <title>reading</title>
 <path d="m1006 713h-992c0-132 52.2-258 145-351 93-93 219-145 351-145s258 52.2 351 145c93 93 145 219 145 351z" fill="#f0f8ff"/>
 <ellipse cx="502" cy="743" rx="259" ry="32.5" fill="#3f3d56"/>
 <g transform="matrix(1.04 0 0 1.04 -106 0)" stroke-width=".96">
  <g fill="#15d29e" stroke-width=".755">
   <circle cx="940" cy="376" r="102"/>
   <circle cx="831" cy="348" r="102"/>
   <circle cx="712" cy="349" r="102"/>
   <circle cx="673" cy="376" r="102"/>
   <circle cx="607" cy="384" r="102"/>
   <circle cx="580" cy="304" r="102"/>
   <circle cx="610" cy="210" r="102"/>
   <circle cx="667" cy="210" r="102"/>
   <circle cx="700" cy="168" r="102"/>
   <circle cx="783" cy="214" r="102"/>
   <circle cx="979" cy="304" r="102"/>
   <circle cx="920" cy="253" r="102"/>
   <circle cx="882" cy="202" r="102"/>
   <circle cx="810" cy="125" r="102"/>
   <circle cx="944" cy="210" r="102"/>
  </g>
  <g opacity=".1" stroke-width=".96">
   <circle cx="940" cy="376" r="102"/>
   <circle cx="831" cy="348" r="102"/>
   <circle cx="712" cy="349" r="102"/>
   <circle cx="673" cy="376" r="102"/>
   <circle cx="607" cy="384" r="102" fill="#15d29e"/>
   <circle cx="580" cy="304" r="102"/>
   <circle cx="610" cy="210" r="102"/>
   <circle cx="667" cy="210" r="102"/>
   <circle cx="700" cy="168" r="102"/>
   <circle cx="783" cy="214" r="102"/>
   <circle cx="979" cy="304" r="102"/>
   <circle cx="920" cy="253" r="102"/>
   <circle cx="882" cy="202" r="102"/>
   <circle cx="810" cy="125" r="102"/>
   <circle cx="944" cy="210" r="102"/>
  </g>
  <path transform="translate(-28.9 -59.4)" d="m918 614s62.5-52.5 31.6-127l-30.9-11.6-33.6 103z" fill="#67647e" stroke-width=".755"/>
  <path transform="translate(-28.9 -59.4)" d="m922 472 7.4 2.77-32.9 101 28.7 31.1c-2.38 2.37-3.86 3.61-3.86 3.61l-32.9-35.6z" opacity=".1" stroke-width=".755"/>
  <path transform="translate(-28.9 -59.4)" d="m636 505 8.12 32.5s57.4 7.48 95.6 2.78c6.76-0.959 13.3-3.3 19.1-6.88 3.23-1.91 8.33-2.74 15.3 2.48 11.9 9 70.5 81 61 156-1.51 11.6-10.6 20.7-22.2 22.2-11.7 1.59-22.9 5.82-32.7 12.4l-29 19.3 319-0.904-53-43s-21.1-17.9-37.4-19.5c-4.74-0.47-8.65-4.82-11.8-10.7-18.5-34.6-40.6-67.2-64.6-98.3-17.5-22.7-32.2-46.5-30.8-61.5 3.25-35.8 0-94.2 0-94.2l-61.7-8.12s8.12 78-66.6 97.5-109-1.64-109-1.64z" fill="#67647e" stroke-width=".755"/>
  <g opacity=".1" stroke-width=".96">
   <path transform="translate(-28.9 -59.4)" d="m686 519s34.1 21.1 109 1.62 66.6-97.5 66.6-97.5l11.8 1.53c-0.22-5-0.39-8-0.39-8l-61.7-8.12s8.12 78-66.6 97.5-109-1.62-109-1.62l8.12 32.5s21.9 2.86 47.7 3.93z"/>
   <path transform="translate(-28.9 -59.4)" d="m831 741a77.9 77.9 0 0 1 32.7-12.4 25.8 25.8 0 0 0 22.2-22.2c9.54-74.7-49.1-147-61-156-13-9.75-19.5 1.62-19.5 1.62a105 105 0 0 1-14 2.67c21.1 28 51.2 81.7 44.1 137a25.8 25.8 0 0 1-22.2 22.2 77.9 77.9 0 0 0-32.7 12.4l-29 19.3 74.8-1.63z"/>
  </g>
  <g fill="#15d29e" stroke-width=".755">
   <circle cx="940" cy="353" r="102"/>
   <circle cx="831" cy="325" r="102"/>
   <circle cx="712" cy="326" r="102"/>
   <circle cx="673" cy="353" r="102"/>
   <circle cx="607" cy="362" r="102"/>
   <circle cx="580" cy="281" r="102"/>
   <circle cx="610" cy="187" r="102"/>
   <circle cx="667" cy="187" r="102"/>
   <circle cx="700" cy="145" r="102"/>
   <circle cx="783" cy="191" r="102"/>
   <circle cx="979" cy="281" r="102"/>
   <circle cx="920" cy="230" r="102"/>
   <circle cx="882" cy="179" r="102"/>
   <circle cx="810" cy="102" r="102"/>
   <circle cx="944" cy="187" r="102"/>
  </g>
  <g stroke-width=".755">
   <path transform="translate(-28.9 -59.4)" d="m1071 262s-95.2-45.2-153 34.9" opacity=".1"/>
   <path transform="translate(-28.9 -59.4)" d="m821 171s-105-3.18-126 93.2" opacity=".1"/>
   <path transform="translate(-28.9 -59.4)" d="m690 380s-95.2-45.2-153 34.8" fill="#15d29e" opacity=".1"/>
  </g>
 </g>
 <path d="m570 331c-20.7-35-61.6-36.6-61.6-36.6s-39.9-5.1-65.5 48.1c-23.8 49.6-56.8 97.5-5.3 109l9.29-28.9 5.76 31.1a201 201 0 0 0 22 0.376c55.1-1.78 108 0.52 106-19.3-2.25-26.3 9.31-70.3-10.6-104z" fill="#2f2e41"/>
 <path d="m435 637a81.6 81.6 0 0 1-2.64 11.4c-1.29 3.64-3.29 7.01-4.48 10.7-3.77 11.7 1.46 24.8 9.81 33.8a55.2 55.2 0 0 0 26.9 16c7.54 1.9 15.4 2.17 23.1 2.43 21.5 0.729 43.6 1.38 63.9-5.53a111 111 0 0 0 18.6-8.44 13.9 13.9 0 0 0 4.82-3.8c1.55-2.21 1.75-5.08 1.74-7.79-0.0457-9.12-1.89-18.2-1.45-27.3 0.243-5.04 1.19-10.1 0.722-15.1a27.9 27.9 0 0 0-21.3-24c-5.78-1.24-11.8-0.565-17.7 9.5e-4a450 450 0 0 1-46 2.06c-15.7-0.1-31.3-2.49-46.9-2.74-4.61-0.0739-4.52 1.35-5.99 5.81a109 109 0 0 0-3.31 12.5z" fill="#2f2e41"/>
 <path d="m479 412c-0.753 3.95-1.57 8.03-3.94 11.3-2.73 3.73-7.18 5.86-10.1 9.43-4.42 5.37-4.67 12.9-4.69 19.9-0.0168 6.41 0.113 13.2 3.69 18.6 2.32 3.45 5.85 5.87 9.3 8.2 13.4 9.03 27.9 18.2 44 18.5 6.69 0.123 13.9-1.61 18.3-6.65a27.4 27.4 0 0 0 4.43-7.89 105 105 0 0 0 7.42-31.9c0.368-5.16 0.333-10.5-1.41-15.3-1.96-5.47-5.93-9.97-8.55-15.2a33.8 33.8 0 0 1-3.25-20 2.16 2.16 0 0 0-0.114-1.45 2.11 2.11 0 0 0-1.74-0.704l-32-2.31a69.7 69.7 0 0 1-8.89-1.02c-1.73-0.351-6.29-2.8-7.93-2.15-3.05 1.21-3.85 15.4-4.47 18.7z" fill="#ffb8b8"/>
 <path d="m479 412c-0.753 3.95-1.57 8.03-3.94 11.3-2.73 3.73-7.18 5.86-10.1 9.43-4.42 5.37-4.67 12.9-4.69 19.9-0.0168 6.41 0.113 13.2 3.69 18.6 2.32 3.45 5.85 5.87 9.3 8.2 13.4 9.03 27.9 18.2 44 18.5 6.69 0.123 13.9-1.61 18.3-6.65a27.4 27.4 0 0 0 4.43-7.89 105 105 0 0 0 7.42-31.9c0.368-5.16 0.333-10.5-1.41-15.3-1.96-5.47-5.93-9.97-8.55-15.2a33.8 33.8 0 0 1-3.25-20 2.16 2.16 0 0 0-0.114-1.45 2.11 2.11 0 0 0-1.74-0.704l-32-2.31a69.7 69.7 0 0 1-8.89-1.02c-1.73-0.351-6.29-2.8-7.93-2.15-3.05 1.21-3.85 15.4-4.47 18.7z" opacity=".1"/>
 <circle cx="510" cy="370" r="47" fill="#ffb8b8"/>
 <path d="m486 475c2.45 2.56 5.05 5.1 8.26 6.6a25.9 25.9 0 0 0 10.3 1.96c8.47 0.238 17.7-1.31 23.6-7.4 7.6-7.85 7.35-20.5 13.3-29.7a6.61 6.61 0 0 1 1.92-2.1 6.22 6.22 0 0 1 3.26-0.75c7.52-0.0703 14.1 4.81 20 9.46 2.65 2.08 5.36 4.24 7.03 7.17a24.3 24.3 0 0 1 2.37 7.26c2.93 14.3 3.88 29 4.83 43.6 0.521 8.06 1.04 16.1 1 24.2-0.128 26.6-6.31 52.8-12.5 78.7-0.792 3.34-1.88 7.06-4.91 8.66a12.1 12.1 0 0 1-4.28 1.05c-17.6 2.07-35.3 4.14-53 4.41q-10.4 0.16-20.8-0.503a11.2 11.2 0 0 1-3.5-0.609 9.86 9.86 0 0 1-3.81-3.24c-9.59-12.1-10.2-28.8-10.1-44.2q0.225-56.6 4.04-113c0.21-3.11 0.256-6.88-1.98-9.33 4.03 6.46 9.64 12.4 14.9 17.9z" fill="#d0cde1"/>
 <g fill="#8980f5">
  <path d="m476 421c-1.59 2.87-13.3 10-15.6 12.4-12.6 13.3-35.7 12.8-47.2 27.1-4.06 5.01-6.17 11.3-7.72 17.6-2.2 8.86-3.37 18.5 0.31 26.9 3.54 8.04 11 13.6 16 20.8 5.55 7.88 8.05 17.5 10.4 26.8 1.77 6.9 3.55 14 2.86 21.1-0.782 8.06-4.68 15.4-6.98 23.2s-2.7 17 2.62 23.1c3.91 4.48 10 6.26 15.9 7.26a183 183 0 0 0 22.7 1.97c6.7 0.296 14.1 0.354 19.2-3.94 4.07-3.39 5.83-8.89 6.06-14.2s-0.872-10.5-1.56-15.8c-0.714-5.44-0.989-10.9-1.22-16.4q-1.55-36.9-0.422-73.8c0.156-5.13 0.345-10.3-0.747-15.3-1.44-6.59-5-12.5-7.97-18.5-5.9-12-8.69-23.7-7.78-37 0.9-13.2 6.65-23.2 1-13z"/>
  <path d="m542 422c2.42 2.49 10.6 3.3 13.7 4.9a48 48 0 0 0 9.01 3.12 117 117 0 0 1 31.7 14.5 19.2 19.2 0 0 1 5.29 4.57c1.72 2.39 2.35 5.38 2.93 8.27 1.51 7.46 3.02 15 2.68 22.6-0.359 8.07-2.79 15.9-5.2 23.6l-9.01 28.8c-6.73 21.5-13.5 43.2-15.4 65.7a154 154 0 0 0 1.39 37.3c0.198 1.24 0.364 2.66-0.455 3.61a3.56 3.56 0 0 1-2.21 1.02c-4.35 0.68-8.56-1.54-12.5-3.5a138 138 0 0 0-38.2-12.5 88.7 88.7 0 0 0 11.9-24.4 148 148 0 0 0 3.58-16.8l4.19-24.2a238 238 0 0 0 3.6-26.8 33.6 33.6 0 0 0-0.583-10.1 49 49 0 0 0-3.83-9.11c-6.91-14.4-10.2-30.8-7.43-46.5 1.19-6.88 3.5-13.8 2.54-20.7-0.927-6.64 0.0364-11.8-1.67-18.4-7-27-0.549-9.68 4-5z"/>
  <path d="m413 483c-3.15 6.54-8.42 12.1-10.2 19.1a41.8 41.8 0 0 0-0.89 10c-0.0425 5.06-0.07 10.2 1.48 15 1 3.1 2.63 5.96 3.8 9a32.6 32.6 0 0 1 2.14 13.3c-0.316 6.3-2.46 12.4-2.62 18.7-0.263 9.91 4.32 19.2 8.79 28.1a20.6 20.6 0 0 1 30-9.82c1.18-1.09 1.31-2.88 1.35-4.48q0.496-17.2 0.957-34.5c0.484-17.8 0.945-35.8-3.14-53.1-1.85-7.82-4.72-15.6-9.99-21.7-2.77-3.19-12.2-11.6-16.7-8.02-2.05 1.61-1.57 5.99-1.89 8.2a34.8 34.8 0 0 1-3.03 10.1z"/>
  <path d="m608 464c1.49 4.64 1.58 9.6 1.61 14.5q0.0908 14.9-0.395 29.8c-0.166 5.09-0.394 10.2-1.94 15.1-1.02 3.2-2.59 6.2-3.64 9.39-3.15 9.55-1.43 19.9-1.16 30a34.1 34.1 0 0 1-0.825 9.69c-1.66 6.23-6.13 11.3-9.24 16.9-2.96 5.36-4.75 11.4-8.28 16.4s-9.65 8.97-15.6 7.43c-4.49-1.16-7.69-5.14-9.9-9.22a45.2 45.2 0 0 1-4.68-29.3c2.22-12.2 9.39-23 12-35.2 3.55-16.7-1.85-33.8-1.68-50.9a24.6 24.6 0 0 1 1.07-7.89c1.36-3.89 4.27-7 6.96-10.1a128 128 0 0 0 9.35-12.3c1.93-2.87 4.54-10.3 7.96-10.9 7.62-1.37 16.5 10.7 18.4 16.6z"/>
 </g>
 <path d="m374 630a46.4 46.4 0 0 0-12.9-1.37 32.2 32.2 0 0 0-29.9 38 54.1 54.1 0 0 0 5.11 14c3.42 6.95 7.53 13.9 13.9 18.3 3.71 2.6 8 4.23 12.2 5.82l33.4 12.6c4.91 1.85 9.82 3.7 14.8 5.41a289 289 0 0 0 77.2 15.3c8.01 0.477 16.1 0.61 24-1.21 1.85-0.433 3.83-1.08 4.91-2.65a8.4 8.4 0 0 0 1.1-3.62l2.05-14.4c0.289-2.02 0.567-4.15-0.175-6.06-0.941-2.42-3.3-3.94-5.55-5.23-21.9-12.6-47.6-19.6-66-36.8-4.35-4.07-7.98-10.5-13.3-13.3-5.99-3.14-13-4.93-19.2-7.82-13.5-6.32-26.8-13.6-41.5-16.9z" fill="#2f2e41"/>
 <rect y="713" width="1020" height="2" fill="#2f2e41"/>
 <path d="m407 649c11.8 3.7 61.6 29.3 70.1 38.2-1.14 0.412-40-21.3-41.1-21.7-10.6-3.18-21.2-6.38-31.3-11-2.02-0.936-13.1-5.33-12.6-7.88 0.568-2.88 12.8 1.71 14.9 2.36z" opacity=".1"/>
 <path d="m554 745a2.77 2.77 0 0 0 1.87-0.55 2.89 2.89 0 0 0 0.584-2.15q-0.0275-9.79-0.0549-19.6c-5.63-2.68-11.9-3.54-18.1-4.37l-28.8-3.86c0.663 0.0886-4.51 12.4-3.72 14.1 1.4 2.9 12.1 5.48 15.1 6.85 10.5 4.76 21.4 10 33.2 9.59z" fill="#ffb8b8"/>
 <path d="m464 723c-5.45 0.868-11.5 1.63-15.1 5.87-4.47 5.38-2.57 13.4-0.435 20.1a8.64 8.64 0 0 0 1.86 3.65c1.46 1.44 3.69 1.65 5.73 1.78 4.97 0.315 10.3 0.561 14.6-1.88a64 64 0 0 0 5.67-4.21 36.3 36.3 0 0 1 10.4-4.77 105 105 0 0 1 20.9-4.31 32.5 32.5 0 0 0 8.24-1.45c2.62-0.986 5.04-2.94 5.8-5.64 1.01-3.56-1.06-7.19-3.05-10.3-2.47-3.89-5.09-7.98-8.77-10.8-5.38-4.18-8.03-0.97-13.4 1.7a114 114 0 0 1-32.5 10.4z" fill="#ffb8b8"/>
 <g fill="#2f2e41">
  <path d="m449 728-34.6-10.2c-4.21-1.24-8.48-2.5-12.9-2.49-4.39 3e-3 -8.98 1.44-11.8 4.78-2.68 3.15-3.45 7.45-4.12 11.5l-1.43 8.73c-0.727 4.44-1.45 8.96-0.801 13.4s2.92 8.89 6.87 11c4.79 2.61 10.7 1.34 16 0.244a174 174 0 0 1 32.8-3.51c4.14-0.0495 8.48 2e-3 12.1-1.94 4.35-2.3 6.95-7.18 7.4-12.1 0.681-7.46-1.8-17.2-9.55-19.5z"/>
  <path d="m568 719c4.48-0.786 8.44-3.33 12.7-4.84 6.05-2.12 12.6-2.12 19-2.09 2.35 9e-3 4.86 0.0613 6.81 1.36 2.82 1.88 3.55 5.64 4.03 9l2.9 20.2c0.545 3.81 1.09 7.72 0.237 11.5s-3.41 7.37-7.13 8.34c-4.52 1.18-8.96-1.71-13.2-3.61-10.7-4.74-23.1-3.53-34.2-7.08-2.07-0.658-4.28-1.66-5.12-3.66a8.33 8.33 0 0 1-0.398-3.5c0.191-6.51-1.18-15.4 0.777-21.6 1.76-5.59 8.59-4.02 13.6-4.02z"/>
  <path d="m641 622a60.1 60.1 0 0 1 21.2-1.45c5.66 0.623 11.5 2.2 15.6 6.11 5.03 4.76 6.64 12.1 6.78 19.1a59.5 59.5 0 0 1-12.9 38 34.5 34.5 0 0 1-7.4 7.12 48.7 48.7 0 0 1-9.63 4.64l-74.7 29.5c-19.7 7.75-39.4 15.5-59.9 20.6a4.67 4.67 0 0 1-6.28-2.28 155 155 0 0 1-16.4-30 2.02 2.02 0 0 1 0.892-3.18l52.9-30.4c3.79-2.18 7.61-4.38 10.8-7.41a26.7 26.7 0 0 0 5.52-7.69c1.1-2.29 1.2-7.69 2.6-9.38 1.37-1.66 6.06-1.79 8.22-2.44a74.6 74.6 0 0 0 8.95-3.38c11.8-5.29 22.4-13 33.7-19.2a86.4 86.4 0 0 1 20.2-8.37z"/>
 </g>
 <path d="m611 644c-9.08 6.82-20.8 13.1-29.8 20.1-3.07 2.39-54.3 31.2-55 35 8.4 1.41 61.9-36 69.5-39.7s14.4-9 21.2-14.2c1.71-1.33 8.97-5.34 4.06-6.82-2.77-0.838-7.87 4.33-9.91 5.7z" opacity=".1"/>
 <polygon transform="translate(0 41.3)" points="465 274 453 325 482 324 490 305 490 324 503 323 511 293 516 325 563 324 561 287 521 265" fill="#2f2e41"/>
 <rect x="465" y="433" width="87" height="105" fill="#3f3d56"/>
 <path d="m424 615c2 2.98 4.34 5.9 7.55 7.51a14.8 14.8 0 0 0 13-0.348 22.8 22.8 0 0 0 9.36-9.39c4.39-7.76 5.3-17 4.76-25.9s-2.45-17.7-3.29-26.5c-0.611-6.45-0.661-12.9-0.71-19.4a6.46 6.46 0 0 1 0.816-3.93c0.973-1.33 2.76-1.7 4.33-2.16 8.87-2.63 14.8-10.9 19-19.2 2.82-5.5 5.27-11.5 4.72-17.7s-4.97-12.4-11.1-13c-5.07-0.518-9.74 2.7-13.4 6.25a57.5 57.5 0 0 0-16.8 33.6c-0.802 6.26-0.572 12.7-2.27 18.8-3.63 13-15 20.9-20.7 32.6-6.24 12.9-2.8 27.5 4.79 38.8z" fill="#ffb8b8"/>
 <path d="m591 566a24.5 24.5 0 0 1-13.7 13.2 19 19 0 0 1-11.9 0.732 13.2 13.2 0 0 1-8.75-7.83 21.1 21.1 0 0 1-0.986-5.88c-0.569-8.75-0.349-17.8 2.83-25.9 1.23-3.15 2.88-6.14 3.84-9.38a47 47 0 0 0 1.45-11.4l1.04-23.9a15.5 15.5 0 0 0-0.354-5.17c-1.04-3.45-4.27-5.7-7.23-7.76-7.15-4.97-14.2-10.8-17.7-18.8a13.2 13.2 0 0 1-1.22-7.77c0.977-4.74 5.76-7.81 10.5-8.84a23.5 23.5 0 0 1 28.1 18.9c0.468 2.69 0.461 5.44 0.735 8.16 0.581 5.77 2.41 11.3 3.56 17 2.82 14 1.36 28.5 4.15 42.5 2.33 11.7 11.1 19.3 5.71 32.1z" fill="#ffb8b8"/>
 <g>
  <path d="m169 712-2-0.0391a464 464 0 0 1 7.1-66.3c8.65-46.9 23-77.7 42.7-91.5l1.15 1.64c-46.1 32.3-49 155-49 156z" fill="#5d5a72"/>
  <circle cx="229" cy="546" r="10" fill="#8980f5"/>
  <path d="m189 562c1.88 12-3.02 22.7-3.02 22.7s-7.95-8.73-9.82-20.7 3.02-22.7 3.02-22.7 7.95 8.73 9.82 20.7z" fill="#5d5a72"/>
  <path d="m222 591c-11.5 3.94-22.9 0.99-22.9 0.99s7.21-9.34 18.7-13.3 22.9-0.99 22.9-0.99-7.21 9.34-18.7 13.3z" fill="#5d5a72"/>
 </g>
 <g transform="translate(-.168 42.7)">
  <path d="m194 670-2-0.0391c0.043-2.21 1.29-54.4 21.8-68.8l1.15 1.64c-19.7 13.8-21 66.7-21 67.2z" fill="#5d5a72"/>
  <circle cx="224" cy="590" r="10" fill="#8980f5"/>
  <path d="m222 626a31.1 31.1 0 0 1-16.1 0.694 28.4 28.4 0 0 1 29.2-10 31.1 31.1 0 0 1-13.1 9.31z" fill="#5d5a72"/>
 </g>
 <g transform="matrix(-1 0 0 1 349 42.9)">
  <path d="m194 670-2-0.0391c0.043-2.21 1.29-54.4 21.8-68.8l1.15 1.64c-19.7 13.8-21 66.7-21 67.2z" fill="#5d5a72"/>
  <circle cx="224" cy="590" r="10" fill="#8980f5"/>
  <path d="m222 626a31.1 31.1 0 0 1-16.1 0.694 28.4 28.4 0 0 1 29.2-10 31.1 31.1 0 0 1-13.1 9.31z" fill="#5d5a72"/>
 </g>
</svg>
